<svg width="15" height="9" viewBox="0 0 15 9" fill="none" xmlns="http://www.w3.org/2000/svg">
<path d="M14.6706 8.47738C14.4596 8.68828 14.1736 8.80676 13.8752 8.80676C13.5769 8.80676 13.2908 8.68828 13.0799 8.47738L7.51112 2.90863L1.94236 8.47738C1.73019 8.68231 1.44601 8.7957 1.15104 8.79314C0.856067 8.79057 0.573902 8.67226 0.365318 8.46367C0.156734 8.25509 0.0384207 7.97293 0.0358572 7.67795C0.0332937 7.38298 0.146688 7.09881 0.351616 6.88663L6.71574 0.522503C6.92671 0.311598 7.21281 0.193118 7.51112 0.193118C7.80942 0.193118 8.09552 0.311598 8.30649 0.522503L14.6706 6.88663C14.8815 7.0976 15 7.38369 15 7.682C15 7.98031 14.8815 8.26641 14.6706 8.47738Z" fill="white"/>
</svg>
