<svg width="200" height="45" viewBox="0 0 200 45" fill="none" xmlns="http://www.w3.org/2000/svg">
<path d="M20.958 39.8952C21.2301 39.1947 21.3598 38.447 21.3396 37.6958C21.3811 35.6139 21.9375 33.5746 22.9592 31.7602C23.9783 29.9487 25.4317 28.419 27.1885 27.3084C27.8391 26.9595 28.412 26.4822 28.8728 25.9055C29.3335 25.3287 29.6725 24.6645 29.8691 23.953C30.0657 23.2415 30.116 22.4974 30.0168 21.7659C29.9176 21.0344 29.671 20.3307 29.292 19.6972C28.7857 18.8511 28.0571 18.1574 27.1885 17.6958C26.6906 17.3504 26.2123 16.9783 25.7564 16.5797L24.6137 15.4609C22.5199 13.2597 21.3458 10.3421 21.3312 7.30421C21.3528 6.55284 21.2238 5.80474 20.9516 5.10405C20.6794 4.40336 20.2697 3.76428 19.7466 3.22449C19.2258 2.68531 18.6017 2.25659 17.9116 1.96391C17.2214 1.67123 16.4794 1.5206 15.7298 1.521C14.9806 1.52205 14.2392 1.67336 13.5495 1.96596C12.8598 2.25855 12.2358 2.68651 11.7144 3.22449C11.1922 3.76522 10.7831 4.40468 10.511 5.10543C10.2389 5.80618 10.1093 6.55417 10.1298 7.30561C10.142 8.28105 10.4107 9.2361 10.9088 10.0748C11.4052 10.9122 12.114 11.6035 12.9634 12.079C16.4025 14.2553 18.7955 18.4161 18.7955 22.5084C18.787 25.5199 17.6353 28.4158 15.5732 30.6105L12.9718 32.921C12.1228 33.3951 11.4137 34.086 10.9158 34.9252C10.4165 35.763 10.1494 36.7196 10.1368 37.6958C10.1154 38.4472 10.2446 39.1952 10.5167 39.8959C10.7889 40.5965 11.1985 41.2356 11.7214 41.7755C12.2423 42.3146 12.8664 42.7432 13.5565 43.0359C14.2466 43.3286 14.9886 43.4793 15.7382 43.479C16.4876 43.4782 17.2293 43.327 17.9192 43.0344C18.6092 42.7417 19.2334 42.3137 19.755 41.7755C20.2769 41.2349 20.6859 40.5957 20.958 39.8952Z" fill="#8DA2FB"/>
<path d="M28.555 10.4161C27.9382 9.49023 27.6095 8.40072 27.6095 7.28743C27.6105 5.79614 28.2012 4.36576 29.2529 3.30841C30.1673 2.38846 31.3733 1.81541 32.6641 1.68755C33.9549 1.5597 35.2499 1.88503 36.327 2.60771C37.2496 3.22716 37.968 4.10612 38.3913 5.13358C38.8147 6.16222 38.9253 7.29291 38.7091 8.38407C38.4929 9.47523 37.9596 10.4784 37.1759 11.2678C36.3947 12.0552 35.3966 12.5918 34.3089 12.8093C33.2213 13.0267 32.0936 12.9152 31.0697 12.4888C30.0448 12.062 29.1696 11.3407 28.555 10.4161Z" fill="#8DA2FB"/>
<path d="M30.1004 33.0147C31.0221 32.3965 32.106 32.0665 33.2137 32.0665V32.0637C33.95 32.0645 34.679 32.2108 35.3587 32.494C36.0383 32.7772 36.6554 33.1918 37.1746 33.714C38.0919 34.6369 38.6626 35.8483 38.79 37.1433C38.9174 38.4384 38.5938 39.7377 37.8739 40.8217C37.2593 41.7475 36.3836 42.4699 35.3578 42.8972C34.3338 43.3236 33.2061 43.4351 32.1185 43.2177C31.0309 43.0002 30.0327 42.4636 29.2515 41.6762C28.4676 40.8866 27.9341 39.8833 27.7179 38.7918C27.5017 37.7004 27.6124 36.5694 28.0361 35.5406C28.4595 34.5132 29.1779 33.6342 30.1004 33.0147Z" fill="#8DA2FB"/>
<path d="M46.6081 19.3644C47.2233 20.2899 47.5519 21.3776 47.5522 22.4904C47.5512 23.9821 46.9605 25.4128 45.9088 26.4706C45.3896 26.9927 44.7724 27.4072 44.0928 27.6903C43.4131 27.9735 42.6843 28.1199 41.948 28.121C40.8391 28.121 39.7553 27.7909 38.8347 27.1727C37.9121 26.5533 37.1937 25.6743 36.7704 24.6469C36.3466 23.6181 36.236 22.4871 36.4522 21.3956C36.6684 20.3042 37.2018 19.3008 37.9857 18.5112C38.7671 17.7236 39.7655 17.1868 40.8534 16.9693C41.9413 16.7518 43.0693 16.8636 44.0934 17.2902C45.1185 17.7174 45.9937 18.4393 46.6081 19.3644Z" fill="#8DA2FB"/>
<path d="M3.88929 17.8105C4.81097 17.1923 5.89349 16.8622 7.00258 16.8622C7.73873 16.8638 8.46734 17.0105 9.14675 17.2939C9.82615 17.5773 10.443 17.9919 10.962 18.514C11.879 19.4366 12.4493 20.6474 12.5767 21.9419C12.7041 23.2364 12.3808 24.5352 11.6613 25.6189C11.0469 26.5439 10.1717 27.2658 9.14663 27.693C8.12235 28.1173 6.99512 28.2278 5.90796 28.0104C4.8208 27.793 3.82271 27.2576 3.04034 26.472C2.25671 25.6826 1.7234 24.6794 1.50721 23.5883C1.29102 22.4971 1.40155 21.3664 1.82496 20.3378C2.24816 19.3098 2.96652 18.4304 3.88929 17.8105Z" fill="#8DA2FB"/>
<path d="M82.0477 15.6971L79.1945 26.0356L76.14 15.6971H72.0449L68.9903 26.002L66.1372 15.6971H61.5386L66.8756 32.4804H71.0043L74.0924 22.3097L77.1805 32.4804H81.3092L86.6463 15.6971H82.0477ZM96.3134 32.9503C101.248 32.9503 105.209 29.0901 105.209 24.0887C105.209 19.0873 101.248 15.2272 96.3134 15.2272C91.3791 15.2272 87.4519 19.0873 87.4519 24.0887C87.4519 29.0901 91.3791 32.9503 96.3134 32.9503ZM96.3134 28.7209C93.7623 28.7209 91.7819 26.8076 91.7819 24.0887C91.7819 21.3699 93.7623 19.4566 96.3134 19.4566C98.898 19.4566 100.878 21.3699 100.878 24.0887C100.878 26.8076 98.898 28.7209 96.3134 28.7209ZM112.585 18.5838V15.6971H108.255V32.4804H112.585V24.458C112.585 20.9335 115.438 19.9265 117.687 20.195V15.3615C115.572 15.3615 113.457 16.3013 112.585 18.5838ZM135.692 32.4804L128.746 23.988L135.492 15.6971H130.322L124.548 23.0817V8.98385H120.218V32.4804H124.548V24.8608L130.657 32.4804H135.692ZM146.884 8.51392C141.547 8.51392 138.996 10.8971 138.996 15.5293V15.6971H136.579V19.8594H138.996V32.4804H143.326V19.8594H146.112V15.6971H143.326V15.5293C143.326 13.2468 144.635 12.3069 146.884 12.3069C147.32 12.3069 147.79 12.3069 148.26 12.3405V32.4804H152.59V9.21881C150.744 8.84958 148.999 8.51392 146.884 8.51392ZM164.527 32.9503C169.462 32.9503 173.422 29.0901 173.422 24.0887C173.422 19.0873 169.462 15.2272 164.527 15.2272C159.593 15.2272 155.666 19.0873 155.666 24.0887C155.666 29.0901 159.593 32.9503 164.527 32.9503ZM164.527 28.7209C161.976 28.7209 159.996 26.8076 159.996 24.0887C159.996 21.3699 161.976 19.4566 164.527 19.4566C167.112 19.4566 169.092 21.3699 169.092 24.0887C169.092 26.8076 167.112 28.7209 164.527 28.7209ZM194.712 15.6971L191.859 26.0356L188.804 15.6971H184.709L181.655 26.002L178.802 15.6971H174.203L179.54 32.4804H183.669L186.757 22.3097L189.845 32.4804H193.974L199.311 15.6971H194.712Z" fill="#4338CA"/>
</svg>
